HIERARCHY
ROOT Hips
{
	OFFSET 0.000000 0.000000 0.000000 
	CHANNELS 6 Xposition Yposition Zposition Yrotation Zrotation Xrotation 
	JOINT Lumbar
	{
		OFFSET 0.000000 0.000000 0.000000 
		CHANNELS 3 Zrotation Xrotation Yrotation
		JOINT Neck
		{
			OFFSET 0.000000 0.445665 0.000000 
			CHANNELS 3 Zrotation Xrotation Yrotation
			End Site
			{
				OFFSET 0.000000 0.227535 0.000000 
			}
		}
		JOINT RightShoulder
		{
			OFFSET 0.019635 0.377685 0.194865 
			CHANNELS 3 Zrotation Xrotation Yrotation
			JOINT RightElbow
			{
				OFFSET 0.000000 -0.243375 0.000000 
				CHANNELS 2 Zrotation Yrotation
				JOINT RightWrist
				{
					OFFSET 0.000000 -0.264825 0.000000 
					CHANNELS 2 Zrotation Xrotation
					End Site
					{
						OFFSET 0.006600 -0.176220 0.000990 
					}
				}
			}
		}
		JOINT LeftShoulder
		{
			OFFSET 0.019635 0.377685 -0.194865 
			CHANNELS 3 Zrotation Xrotation Yrotation
			JOINT LeftElbow
			{
				OFFSET 0.000000 -0.243375 0.000000 
				CHANNELS 2 Zrotation Yrotation
				JOINT LeftWrist
				{
					OFFSET 0.000000 -0.264825 0.000000 
					CHANNELS 2 Zrotation Xrotation
					End Site
					{
						OFFSET 0.006600 -0.176220 -0.000990 
					}
				}
			}
		}
	}
	JOINT RightHip
	{
		OFFSET 0.052140 -0.069960 0.075570 
		CHANNELS 3 Zrotation Xrotation Yrotation
		JOINT RightKnee
		{
			OFFSET 0.000000 -0.402270 0.000000 
			CHANNELS 1 Zrotation
			JOINT RightAnkle
			{
				OFFSET 0.000000 -0.404085 0.000000 
				CHANNELS 3 Zrotation Xrotation Yrotation
				End Site
				{
					OFFSET 0.204105 -0.089430 0.008415 
				}
			}
		}
	}
	JOINT LeftHip
	{
		OFFSET 0.052140 -0.069960 -0.075570 
		CHANNELS 3 Zrotation Xrotation Yrotation
		JOINT LeftKnee
		{
			OFFSET 0.000000 -0.402270 0.000000 
			CHANNELS 1 Zrotation
			JOINT LeftAnkle
			{
				OFFSET 0.000000 -0.404085 0.000000 
				CHANNELS 3 Zrotation Xrotation Yrotation
				End Site
				{
					OFFSET 0.204105 -0.089430 -0.008415 
				}
			}
		}
	}
}
MOTION
Frames: 25
Frame Time: 0.02
0.47705 -0.28279 -0.07882 144.85004 0.75323 -6.5757 22.0935 -6.03602 35.30068 -11.7898 25.50924 -0.83079 6.36837 11.40178 64.17114 57.20714 97.20267 18.29193 0.30361 -53.97715 4.18787 50.22417 79.82165 -45.87245 -29.78276 -1.66749 52.90372 10.82221 -21.51842 -15.79379 -20.79369 -0.01845 -1.02448 72.47047 6.08152 16.5831 -44.23938 -17.20446 2.31147 2.27445
0.4773 -0.28317 -0.07786 145.19612 1.03623 -6.3965 21.5715 -6.05816 35.28287 -12.0075 25.44324 -0.83079 7.30174 11.40198 64.17123 57.36596 97.03125 18.23424 0.20952 -55.61077 5.93648 47.51052 79.659 -41.67203 -30.94592 -2.49716 53.00822 10.3341 -20.74837 -16.66521 -20.66447 -0.07304 -1.05365 72.78959 5.7816 16.60557 -43.89265 -17.33257 2.13495 2.17297
0.47759 -0.28367 -0.07673 145.5532 1.35971 -6.18323 20.99296 -6.0747 35.24304 -12.23039 25.35843 -0.83079 8.42517 11.40159 64.17104 57.59465 96.86592 18.18321 0.06655 -57.67825 8.0355 44.23975 79.50179 -36.37859 -32.40811 -3.54949 53.16146 9.77121 -20.06584 -17.72016 -20.53214 -0.13578 -1.08778 73.12925 5.48942 16.56879 -43.26347 -17.64756 1.96339 2.08478
0.47786 -0.28413 -0.07568 145.90998 1.66344 -5.9864 20.443 -6.09233 35.19695 -12.46375 25.27819 -0.83079 9.47884 11.40193 64.17125 57.79349 96.62756 18.12147 -0.0655 -59.49053 9.87089 41.34577 79.35712 -31.74438 -33.58716 -4.48943 53.28908 9.24227 -19.34202 -18.68091 -20.40127 -0.19511 -1.11983 73.462 5.20552 16.5552 -42.7726 -17.86598 1.79698 1.99463
0.47814 -0.28453 -0.07463 146.24819 1.97486 -5.78379 19.87699 -6.11728 35.22399 -12.6423 25.21859 -0.83079 10.47082 11.40242 64.17135 57.97728 96.6776 18.10335 -0.14037 -61.54913 12.15038 37.92371 79.15306 -26.36573 -35.39763 -5.48697 53.4291 8.71166 -18.61634 -19.6872 -20.27021 -0.25364 -1.15143 73.78691 4.86799 16.55906 -42.24002 -18.12903 1.59778 1.88615
0.4784 -0.28508 -0.07354 146.6285 2.27853 -5.58679 19.33368 -6.12428 35.08753 -12.93794 25.10576 -0.83079 11.62854 11.39984 64.17029 58.21724 96.1358 17.98084 -0.35793 -63.19763 13.58664 35.47211 79.06777 -22.34904 -35.94962 -6.40536 53.5571 8.16724 -17.91831 -20.64413 -20.1379 -0.31545 -1.1849 74.13225 4.64614 16.51004 -41.73115 -18.34569 1.46864 1.8194
0.47859 -0.286 -0.07242 147.10672 2.55781 -5.40168 18.85232 -6.09447 34.5569 -13.53777 24.90337 -0.83079 13.24921 11.40511 64.17282 58.53334 93.9211 17.70008 -0.84726 -63.60222 12.61057 35.83108 79.36678 -21.73506 -33.08833 -7.15295 53.6237 7.60577 -17.27716 -21.39753 -20.01393 -0.38609 -1.22386 74.52726 4.73345 16.35076 -41.30772 -18.38305 1.53178 1.86488
0.47876 -0.28706 -0.07125 147.62962 2.82621 -5.22586 18.39919 -6.04456 33.85275 -14.25831 24.63825 -0.83079 15.016 11.40009 64.16969 58.91958 91.12909 17.28841 -1.49373 -63.58013 10.77373 37.18723 79.77425 -22.62709 -28.92948 -7.79561 53.68004 7.03282 -16.66149 -22.09947 -19.88678 -0.45921 -1.26413 74.94201 4.93866 16.13564 -40.92677 -18.36886 1.66534 1.95192
0.47893 -0.28805 -0.07009 148.14173 3.09517 -5.05355 17.94254 -5.99649 33.19414 -14.9353 24.36744 -0.83079 16.68655 11.39449 64.16887 59.30881 88.61211 16.85208 -2.14735 -63.75628 9.32831 38.09192 80.09488 -23.26511 -25.27124 -8.41705 53.75142 6.46346 -16.03428 -22.83846 -19.75413 -0.53027 -1.30295 75.34858 5.09615 15.93315 -40.55739 -18.38243 1.76706 2.02004
0.47912 -0.28904 -0.06899 148.61343 3.38498 -4.84685 17.44298 -5.97942 32.67578 -15.5653 24.24066 -0.83079 18.50616 11.42826 64.1825 59.53529 85.99616 16.77623 -2.49292 -63.92816 7.89106 38.97202 80.57553 -22.1282 -21.98242 -9.33045 53.7792 5.89795 -15.41047 -23.52343 -19.65112 -0.60637 -1.34604 75.75288 5.23018 15.78548 -40.04628 -18.38418 1.86884 2.08907
0.47925 -0.29007 -0.06775 149.18061 3.62708 -4.71513 17.04221 -5.89257 31.82395 -16.32108 23.79883 -0.83079 20.02693 11.35599 64.14795 60.13905 83.50641 15.91215 -3.48928 -64.00339 6.2317 40.14466 80.74693 -24.95928 -17.63351 -9.61634 53.89656 5.32314 -14.78368 -24.30976 -19.4851 -0.67143 -1.37987 76.16592 5.43965 15.50728 -39.84612 -18.39584 1.98638 2.16547
0.47927 -0.29124 -0.06617 149.99312 3.74962 -4.78232 16.89143 -5.62261 30.09749 -17.40072 22.50631 -0.83079 20.85763 11.18179 64.12116 61.56739 80.99794 12.96173 -6.48361 -63.90098 4.13546 41.90904 80.04994 -39.25838 -10.48313 -8.12126 54.24772 4.72256 -14.14897 -25.35779 -19.15087 -0.71408 -1.39303 76.60121 5.84036 14.91648 -40.47866 -18.44719 2.13696 2.25581
0.47922 -0.29245 -0.06446 150.90151 3.8224 -4.92583 16.84262 -5.28242 28.04111 -18.60164 20.89869 -0.83079 21.34698 10.86866 64.01764 63.40486 78.71801 9.21581 -10.08482 -63.71635 1.85102 43.93154 79.03457 -57.34464 -2.34106 -6.0109 54.69195 4.11427 -13.5083 -26.51411 -18.75259 -0.74387 -1.39585 77.04386 6.31089 14.19094 -41.42695 -18.50938 2.29968 2.35136
0.47916 -0.29361 -0.0628 151.77077 3.91165 -5.03851 16.75745 -4.97121 26.13313 -19.74299 19.4323 -0.83079 21.88298 10.49228 63.86084 65.1924 76.68378 5.7906 -13.24806 -63.57756 -0.32793 45.81974 78.15842 -73.12004 5.21788 -4.22962 55.10414 3.51139 -12.86626 -27.64051 -18.38018 -0.77376 -1.39993 77.48118 6.7414 13.50395 -42.2423 -18.5659 2.45242 2.442
0.47924 -0.29488 -0.06118 152.62276 4.02699 -5.13556 16.62994 -4.67117 24.2245 -20.90727 17.97023 -0.83079 22.8932 10.63836 64.0858 66.42938 73.20833 2.5161 -17.09202 -63.38977 -2.62511 47.81198 77.31375 -91.41854 13.36513 -2.23623 55.47353 2.89869 -12.24431 -28.6851 -18.02068 -0.8279 -1.4185 77.92791 7.21015 12.90751 -43.01446 -18.62398 2.62652 2.54484
0.47902 -0.29595 -0.05945 153.53302 4.07569 -5.28277 16.61592 -4.33212 22.24248 -22.05113 16.42743 -0.83079 22.81888 9.67689 63.48515 68.88282 72.72791 -1.23816 -19.67204 -63.28826 -4.70433 49.63858 76.32072 -105.36505 20.52563 -0.53955 55.95326 2.30642 -11.57632 -29.92479 -17.61993 -0.82859 -1.40455 78.35609 7.6154 12.09526 -43.95097 -18.68192 2.75803 2.62293
0.478 -0.29646 -0.05739 154.57984 3.9578 -5.55325 16.87804 -3.89703 20.12831 -23.10682 14.72011 -0.83079 19.9491 5.58151 60.72775 74.8195 81.06539 -6.30623 -18.51077 -63.4617 -6.17687 50.9168 75.04668 -106.15845 24.53378 0.18377 56.72355 1.75875 -10.8031 -31.69069 -17.11418 -0.6837 -1.3024 78.73416 7.81785 10.68602 -45.2641 -18.73787 2.7691 2.63165
0.47667 -0.29677 -0.05524 155.68206 3.77365 -5.8708 17.2529 -3.42634 17.95491 -24.13717 12.94672 -0.83079 15.97731 0.40197 57.1227 81.92154 92.30642 -11.79517 -16.0753 -63.72389 -7.41166 52.01894 73.62582 -102.47299 27.53739 0.58708 57.59989 1.23458 -9.9798 -33.64649 -16.57057 -0.48577 -1.16815 79.09223 7.95509 9.07135 -46.73081 -18.79335 2.73657 2.61508
0.47546 -0.29718 -0.05316 156.75906 3.61645 -6.16464 17.58426 -2.97551 15.81566 -25.18036 11.21553 -0.83079 12.43328 -4.2159 53.83736 88.34578 101.81634 -16.96972 -14.28924 -63.9366 -8.72385 53.21592 72.23642 -100.9677 31.12237 1.13904 58.4223 0.70862 -9.16586 -35.50683 -16.04851 -0.31268 -1.04912 79.45795 8.1287 7.57278 -48.12796 -18.84863 2.72344 2.60969
0.47434 -0.29758 -0.05095 157.83901 3.47084 -6.47136 17.88708 -2.50621 13.63242 -26.22387 9.41989 -0.83079 9.18564 -9.15104 50.82583 95.42026 113.0425 -22.69003 -12.22594 -64.18451 -10.1722 54.36296 70.97863 -98.98438 34.23738 1.70017 59.27299 0.14462 -8.40828 -37.41092 -15.50513 -0.13552 -0.92674 79.83176 8.27739 5.97155 -49.53821 -18.90608 2.71224 2.60568
0.47297 -0.29794 -0.04899 158.92548 3.28606 -6.76089 18.2741 -2.06843 11.53337 -27.25712 7.74946 -0.83079 5.06369 -13.65435 47.04381 101.39893 121.41694 -27.36555 -10.43153 -64.38164 -11.27834 55.56498 69.42379 -96.88371 38.05243 2.15666 60.08771 -0.33415 -7.52153 -39.26588 -14.99892 0.04494 -0.80424 80.18171 8.46034 4.53949 -50.94967 -18.95869 2.68684 2.59291
0.47102 -0.29822 -0.04778 160.0094 3.00925 -6.9952 18.87154 -1.72214 9.66375 -28.28416 6.42143 -0.83079 -1.19602 -16.92561 41.34084 104.16649 120.89962 -29.0388 -9.67429 -64.41485 -11.49143 56.98746 67.0213 -95.52722 44.26749 2.41244 60.78551 -0.58621 -6.29097 -40.95327 -14.59703 0.22646 -0.68612 80.48834 8.76371 3.60624 -52.35727 -18.99808 2.62984 2.56022
0.46884 -0.29847 -0.04682 161.09879 2.69566 -7.20926 19.54821 -1.41013 7.8861 -29.29808 5.22732 -0.83079 -8.29061 -19.68098 34.89304 105.76532 117.4729 -29.65257 -9.23389 -64.39469 -11.3683 58.46265 64.34006 -94.19004 51.17159 2.56932 61.44141 -0.75299 -4.93293 -42.58162 -14.23544 0.40817 -0.56979 80.76789 9.10148 2.85491 -53.75266 -19.03226 2.56062 2.51992
0.46675 -0.29875 -0.04576 162.1898 2.39914 -7.43 20.18457 -1.08536 6.07925 -30.30707 3.98579 -0.83079 -15.01412 -22.52516 28.78611 107.83793 115.5725 -30.74672 -8.65386 -64.40072 -11.40236 59.89872 61.82737 -92.84673 57.6147 2.76142 62.11055 -0.95657 -3.63174 -44.22664 -13.86089 0.58691 -0.45453 81.04879 9.41686 2.0326 -55.1332 -19.06913 2.49887 2.48428
0.46471 -0.29899 -0.04467 163.26552 2.0985 -7.66396 20.84342 -0.74668 4.21597 -31.36158 2.68339 -0.83079 -21.76805 -26.02641 22.63623 110.21401 112.89314 -31.82843 -8.00259 -64.40168 -11.41038 61.40316 59.12556 -91.35108 64.66275 2.98247 62.80796 -1.16656 -2.32973 -45.92036 -13.46303 0.78099 -0.32949 81.37704 9.75911 1.15187 -56.60893 -19.10587 2.42726 2.4426
